<svg xmlns="http://www.w3.org/2000/svg" xmlns:xlink="http://www.w3.org/1999/xlink" version="1.1" id="Layer_1" x="0px" y="0px" width="100px" height="100px" viewBox="0 0 100 100" enable-background="new 0 0 100 100" xml:space="preserve">
<g>
	<g>
		<path d="M97.607,21.014c0,1.559-1.275,2.834-2.835,2.834H5.227c-1.559,0-2.834-1.275-2.834-2.834V18.26    c0-1.559,1.275-2.834,2.834-2.834h89.546c1.56,0,2.835,1.275,2.835,2.834V21.014z"/>
	</g>
	<g>
		<g>
			<g>
				<path d="M23.421,81.739c0,1.56-1.275,2.835-2.834,2.835h-3.998c-1.559,0-2.834-1.275-2.834-2.835v-2.138      c0-1.56,1.275-2.835,2.834-2.835h3.998c1.559,0,2.834,1.275,2.834,2.835V81.739z"/>
			</g>
			<g>
				<path d="M86.248,81.739c0,1.56-1.275,2.835-2.835,2.835h-3.994c-1.56,0-2.835-1.275-2.835-2.835v-2.138      c0-1.56,1.275-2.835,2.835-2.835h3.994c1.56,0,2.835,1.275,2.835,2.835V81.739z"/>
			</g>
		</g>
	</g>
	<g>
		<path d="M11.3,60.732c-0.78,0-1.417,0.638-1.417,1.417v14.805c0,0.779,0.638,1.417,1.417,1.417h77.404    c0.779,0,1.417-0.638,1.417-1.417V62.149c0-0.779-0.638-1.417-1.417-1.417H11.3z M48.872,72.02c-1.363,0-2.466-1.103-2.466-2.466    s1.103-2.466,2.466-2.466s2.466,1.103,2.466,2.466S50.235,72.02,48.872,72.02z"/>
	</g>
	<g>
		<path d="M11.3,42.29c-0.78,0-1.417,0.638-1.417,1.417v14.807c0,0.779,0.638,1.417,1.417,1.417h77.404    c0.779,0,1.417-0.638,1.417-1.417V43.707c0-0.78-0.638-1.417-1.417-1.417H11.3z M48.872,53.576c-1.363,0-2.466-1.103-2.466-2.466    s1.103-2.467,2.466-2.467s2.466,1.104,2.466,2.467S50.235,53.576,48.872,53.576z"/>
	</g>
	<g>
		<path d="M11.02,22.262c-0.625,0-1.137,0.512-1.137,1.137v16.952c0,0.625,0.512,1.137,1.137,1.137h77.964    c0.625,0,1.137-0.511,1.137-1.137V23.398c0-0.625-0.512-1.137-1.137-1.137H11.02z M48.872,35.133    c-1.363,0-2.466-1.104-2.466-2.466c0-1.363,1.103-2.467,2.466-2.467s2.466,1.104,2.466,2.467    C51.338,34.029,50.235,35.133,48.872,35.133z"/>
	</g>
</g>
</svg>