<svg xmlns="http://www.w3.org/2000/svg" xmlns:xlink="http://www.w3.org/1999/xlink" version="1.1" x="0px" y="0px" width="100px" height="100px" viewBox="0 0 100 100" enable-background="new 0 0 100 100" xml:space="preserve">
<g id="Background">
</g>
<g id="Pictograms">
	<path d="M82.657,6.297h-3.64v-1.32c0-0.55-0.44-1-1-1h-10.7v-2.48c0-0.55-0.44-1-1-1c-0.55,0-1,0.45-1,1v2.48h-7.74v-2.48   c0-0.55-0.45-1-1-1c-0.55,0-1,0.45-1,1v2.48h-7.28v-2.48c0-0.55-0.44-1-1-1c-0.55,0-1,0.45-1,1v2.48h-7.74v-2.48c0-0.55-0.44-1-1-1   c-0.55,0-1,0.45-1,1v2.48h-7.27v-2.48c0-0.55-0.45-1-1-1c-0.56,0-1,0.45-1,1v2.48h-9.78c-0.55,0-1,0.45-1,1v88.88   c0,0.56,0.45,1,1,1h1.32v3.64c0,0.56,0.45,1,1,1h62.83c0.55,0,1-0.44,1-1v-91.2C83.657,6.747,83.207,6.297,82.657,6.297z    M18.507,92.857V5.977h8.78v1.61c-0.82,0.35-1.39,1.17-1.39,2.12c0,1.27,1.03,2.31,2.31,2.31s2.31-1.04,2.31-2.31   c0-0.89-0.5-1.66-1.23-2.04v-1.69h7.27v1.71c-0.7,0.39-1.18,1.15-1.18,2.02c0,1.27,1.03,2.31,2.31,2.31s2.31-1.04,2.31-2.31   c0-0.97-0.59-1.8-1.44-2.14v-1.59h7.74v1.59c-0.84,0.34-1.44,1.17-1.44,2.14c0,1.27,1.04,2.31,2.31,2.31   c1.28,0,2.31-1.04,2.31-2.31c0-0.87-0.48-1.63-1.18-2.02v-1.71h7.28v1.69c-0.73,0.38-1.24,1.15-1.24,2.04   c0,1.27,1.04,2.31,2.31,2.31c1.28,0,2.31-1.04,2.31-2.31c0-0.95-0.57-1.76-1.38-2.12v-1.61h7.74v1.57c-0.87,0.32-1.5,1.17-1.5,2.16   c0,1.27,1.04,2.31,2.31,2.31c1.28,0,2.32-1.04,2.32-2.31c0-0.85-0.45-1.58-1.13-1.98v-1.75h9.7v86.88H18.507z M81.657,97.497   h-60.83v-2.64h57.19c0.56,0,1-0.44,1-1V8.297h2.64V97.497z"/>
	<path d="M67.584,37.626H27.948c-0.552,0-1-0.448-1-1s0.448-1,1-1h39.636c0.552,0,1,0.448,1,1S68.136,37.626,67.584,37.626z"/>
	<path d="M67.584,52.934H27.948c-0.552,0-1-0.448-1-1s0.448-1,1-1h39.636c0.552,0,1,0.448,1,1S68.136,52.934,67.584,52.934z"/>
	<path d="M67.584,60.357H27.948c-0.552,0-1-0.448-1-1s0.448-1,1-1h39.636c0.552,0,1,0.448,1,1S68.136,60.357,67.584,60.357z"/>
	<path d="M67.584,22.318H27.948c-0.552,0-1-0.448-1-1s0.448-1,1-1h39.636c0.552,0,1,0.448,1,1S68.136,22.318,67.584,22.318z"/>
	<path d="M67.584,29.74H27.948c-0.552,0-1-0.448-1-1s0.448-1,1-1h39.636c0.552,0,1,0.448,1,1S68.136,29.74,67.584,29.74z"/>
	<path d="M67.584,45.049H27.948c-0.552,0-1-0.448-1-1s0.448-1,1-1h39.636c0.552,0,1,0.448,1,1S68.136,45.049,67.584,45.049z"/>
	<path d="M67.584,75.665H27.948c-0.552,0-1-0.448-1-1s0.448-1,1-1h39.636c0.552,0,1,0.448,1,1S68.136,75.665,67.584,75.665z"/>
	<path d="M67.584,83.087H27.948c-0.552,0-1-0.448-1-1s0.448-1,1-1h39.636c0.552,0,1,0.448,1,1S68.136,83.087,67.584,83.087z"/>
	<path d="M67.584,67.779H27.948c-0.552,0-1-0.448-1-1s0.448-1,1-1h39.636c0.552,0,1,0.448,1,1S68.136,67.779,67.584,67.779z"/>
</g>
<g id="Guides">
</g>
</svg>