<svg xmlns="http://www.w3.org/2000/svg" xmlns:xlink="http://www.w3.org/1999/xlink" version="1.1" id="Layer_1" x="0px" y="0px" width="100px" height="100px" viewBox="0 0 100 100" enable-background="new 0 0 100 100" xml:space="preserve">
<g>
	<defs>
		<rect id="SVGID_1_" x="4.5" y="4.5" width="90" height="90"/>
	</defs>
	<clipPath id="SVGID_2_">
		<use xlink:href="#SVGID_1_" overflow="visible"/>
	</clipPath>
	<path clip-path="url(#SVGID_2_)" fill="#ffffff" d="M43.502,64.501v5.122c0,1.252,0.999,2.25,2.25,2.25h5.436   c1.252,0,2.25-0.998,2.25-2.25v-5.122c0-1.251-0.998-2.25-2.25-2.25h-5.436C44.501,62.251,43.502,63.25,43.502,64.501 M60.5,44.753   c2-2.062,2.438-5.691,2.438-7.941c0-9.189-6.314-12.186-13.563-12.186c-7.623,0-13.311,4.122-13.311,12.186v1.626   c0,1.253,0.999,2.312,2.313,2.312h5.248c1.25,0,2.311-1.059,2.311-2.312v-1.626c0-2.123,1.125-3.937,3.439-3.937   c3.127,0,3.689,2.061,3.689,4.376c0,1.375-0.062,2.747-1.25,3.999l-6.125,6.316c-1.815,1.81-2.065,3.562-2.065,5.869v2.567   c0,1.187,1.002,2.184,2.186,2.184h5.315c1.25,0,2.187-0.997,2.187-2.184v-1.313c0-1.498,0.188-2.563,1.062-3.504L60.5,44.753z    M90,49.5c0,8.033-2.36,15.807-6.829,22.482l-0.611,0.919l4.825,14.483l-14.488-4.824l-0.919,0.614C65.312,87.64,57.538,90,49.5,90   C27.169,90,9,71.833,9,49.5C9,27.169,27.169,9,49.5,9C71.833,9,90,27.169,90,49.5 M94.5,49.5c0-24.813-20.188-45-45-45   c-24.813,0-45,20.187-45,45c0,24.812,20.187,45,45,45c8.56,0,16.848-2.408,24.051-6.979l20.944,6.974l-6.974-20.944   C92.092,66.344,94.5,58.052,94.5,49.5"/>
</g>
</svg>