<svg xmlns="http://www.w3.org/2000/svg" xmlns:xlink="http://www.w3.org/1999/xlink" version="1.1" id="Your_Icon" x="0px" y="0px" width="100px" height="100px" viewBox="0 0 100 100" style="enable-background:new 0 0 100 100;" xml:space="preserve">
<g>
	<path d="M38.906,38.529c-1.908,0-3.457,1.549-3.457,3.463c0,1.918,1.549,3.465,3.457,3.465c1.918,0,3.467-1.547,3.467-3.465   C42.373,40.078,40.824,38.529,38.906,38.529z"/>
	<path d="M71.109,28.133v-3.271c0-7.211-2.164-13.408-5.938-17.842C61.42,2.572,56.016-0.021,50.189,0   c-5.84-0.021-11.248,2.572-14.998,7.02c-3.771,4.434-5.939,10.631-5.939,17.842v3.271H15.484V100h69.402V28.133H71.109z    M40.104,70.281l-9.963-24.004l6.135-10.867l12.029,3.328l9.971,24L40.104,70.281z M64.117,28.133H36.256v-3.271   C36.412,13.145,42.779,7.045,50.189,7c7.395,0.045,13.762,6.145,13.928,17.861V28.133z"/>
</g>
</svg>