<svg xmlns="http://www.w3.org/2000/svg" xmlns:xlink="http://www.w3.org/1999/xlink" version="1.1" id="Camada_1" x="0px" y="0px" width="100px" height="100px" viewBox="0 0 100 100" enable-background="new 0 0 100 100" xml:space="preserve">
<g>
	<path d="M50,15.079c-19.256,0-34.921,15.666-34.921,34.921S30.744,84.922,50,84.922S84.922,69.256,84.922,50   S69.256,15.079,50,15.079z M39.369,54.327c-2.39,0-4.327-1.937-4.327-4.327c0-2.39,1.937-4.327,4.327-4.327   c2.39,0,4.327,1.937,4.327,4.327C43.695,52.39,41.758,54.327,39.369,54.327z M50,64.958c-2.39,0-4.327-1.937-4.327-4.327   S47.61,56.305,50,56.305s4.327,1.937,4.327,4.327S52.389,64.958,50,64.958z M50,43.695c-2.39,0-4.327-1.937-4.327-4.327   c0-2.39,1.937-4.327,4.327-4.327c2.39,0,4.327,1.937,4.327,4.327C54.327,41.758,52.389,43.695,50,43.695z M60.631,54.327   c-2.39,0-4.327-1.937-4.327-4.327s1.937-4.327,4.327-4.327s4.327,1.937,4.327,4.327S63.021,54.327,60.631,54.327z"/>
	<path d="M50,6.146C25.78,6.146,6.146,25.78,6.146,50C6.146,74.22,25.78,93.854,50,93.854S93.854,74.22,93.854,50   C93.854,25.78,74.22,6.146,50,6.146z M50,86.422c-20.083,0-36.421-16.339-36.421-36.422S29.917,13.579,50,13.579   S86.422,29.917,86.422,50S70.083,86.422,50,86.422z"/>
</g>
</svg>