<svg xmlns="http://www.w3.org/2000/svg" xmlns:xlink="http://www.w3.org/1999/xlink" version="1.1" id="Layer_1" x="0px" y="0px" width="100px" height="100px" viewBox="0 0 100 100" style="enable-background:new 0 0 100 100;" xml:space="preserve">
<g>
	<path d="M75.273,25.39v-9.021l-10.967-9.62V25.39h-29.09V6.749l-10.969,9.62v9.021H1.836v39.608v3.414   c0,0.988,0.104,2.078,0.297,3.227c-0.193-0.939-0.297-1.908-0.297-2.898v6.469v3.426c0,7.844,6.107,13.949,13.951,13.949h10.156   h24.354h24.166h0.189h9.584c7.844,0,13.928-6.105,13.928-13.949V25.39H75.273z M58.752,69.469   c-5.544,4.234-6.998,7.033-8.744,8.781c-1.762-1.748-3.293-4.451-8.76-8.781c-5.263-4.158-12.26-9.684-12.26-17.42   c0-11.446,14.006-15.815,21.02-5.313C57,36.234,71.011,40.603,71.011,51.963C71.011,59.692,64.098,65.397,58.752,69.469z"/>
	<rect x="36.5" y="6.792" width="26.625" height="8.583"/>
</g>
</svg>